# xmcd
#
# Track frame offsets:
#	182
#	12480
#	25580
#	38802
#	51192
#	63590
#	76835
#	87945
#	100427
#	112005
#	123972
#	135575
#	147152
#	159767
#	171602
#	183415
#	195130
#	208522
#	219577
#	230700
#
# Disc length: 3242 seconds
#
# Revision: 3
# Processed by: cddbd v1.5.2PL0 Copyright (c) Steve Scherf et al.
# Submitted via: EZCDAudioConverter 6.0.5.1
#
DISCID=120ca814
DTITLE=Hank Williams - 40 Legendary Hits Portrait Of An Artist
DYEAR=1994
DGENRE=Country
TTITLE0=Your Cheatin' Heart
TTITLE1=Jambalaya
TTITLE2=Hey, Good Lookin'
TTITLE3=Cold Cold Heart
TTITLE4=Lovesick Blues
TTITLE5=Mind Your Own Business
TTITLE6=Lonesome Whistle
TTITLE7=I Saw The Light
TTITLE8=Window Shopping
TTITLE9=Take These Chains From My Heart
TTITLE10=My Son Calls Another Man Daddy
TTITLE11=My Bucket's Gotta Hole In It
TTITLE12=Honky Tonkin'
TTITLE13=Settin' The Woods On Firew
TTITLE14=You Win Again
TTITLE15=A Mansion On A Hill
TTITLE16=You're Gonna Change
TTITLE17=My Heart Would Know
TTITLE18=I'll Never Get Out of This World Alive
TTITLE19=There's A Tear In My Beer
EXTD=
EXTT0=
EXTT1=
EXTT2=
EXTT3=
EXTT4=
EXTT5=
EXTT6=
EXTT7=
EXTT8=
EXTT9=
EXTT10=
EXTT11=
EXTT12=
EXTT13=
EXTT14=
EXTT15=
EXTT16=
EXTT17=
EXTT18=
EXTT19=
PLAYORDER=
